<svg width="40" height="40" viewBox="0 0 40 40" fill="none" xmlns="http://www.w3.org/2000/svg">
<path fill-rule="evenodd" clip-rule="evenodd" d="M30.9867 8.33301H9.01334C7.94893 8.33301 6.92813 8.75584 6.17549 9.50849C5.42284 10.2611 5 11.2819 5 12.3463V25.3875C4.99956 25.9148 5.10304 26.437 5.30453 26.9243C5.50603 27.4116 5.80159 27.8544 6.1743 28.2275C6.54702 28.6005 6.98959 28.8964 7.47672 29.0983C7.96386 29.3002 8.48602 29.4041 9.01334 29.4041H16.7744L19.4145 32.293C19.4145 32.293 19.5956 32.8319 20.0356 32.8319C20.48 32.8319 20.6567 32.293 20.6567 32.293L23.2967 29.4041H30.9867C32.0511 29.4041 33.0719 28.9813 33.8245 28.2286C34.5772 27.476 35 26.4552 35 25.3908V12.3463C35 11.2819 34.5772 10.2611 33.8245 9.50849C33.0719 8.75584 32.0511 8.33301 30.9867 8.33301ZM14.4256 19.8608C14.4168 20.5129 14.1522 21.1354 13.6886 21.5941C13.2251 22.0528 12.5999 22.311 11.9478 22.313C11.6694 22.3138 11.3938 22.2582 11.1375 22.1496C10.8812 22.0409 10.6496 21.8814 10.4567 21.6808V22.1108H8.66223V14.7086C8.77334 14.7263 10.4567 14.7086 10.4567 14.7086V17.5397C10.8789 16.8197 12.1 16.8319 12.1 16.8319C14.7578 17.0708 14.4256 19.8608 14.4256 19.8608ZM17.5856 17.0552V22.123H15.8289V17.1052C15.8289 16.423 14.9822 16.233 14.9822 16.233V14.463C15.3297 14.4373 15.6787 14.4866 16.0054 14.6077C16.3322 14.7287 16.6291 14.9186 16.876 15.1645C17.1229 15.4103 17.3141 15.7064 17.4365 16.0326C17.5589 16.3589 17.6098 16.7076 17.5856 17.0552ZM21.7511 22.3152C21.2243 22.2716 20.7215 22.0755 20.3043 21.7508C19.8871 21.4261 19.5735 20.987 19.4019 20.487C19.2302 19.9869 19.2079 19.4478 19.3377 18.9353C19.4675 18.4228 19.7438 17.9593 20.1328 17.6012C20.5217 17.2432 21.0066 17.0063 21.528 16.9193C22.0495 16.8324 22.585 16.8992 23.0691 17.1117C23.5531 17.3241 23.9649 17.673 24.2539 18.1156C24.543 18.5582 24.6968 19.0755 24.6967 19.6041C24.6646 20.3542 24.3364 21.0609 23.784 21.5694C23.2316 22.0778 22.5002 22.3464 21.75 22.3163L21.7511 22.3152ZM31.3767 22.3152C31.3863 22.6574 31.3257 22.9979 31.1987 23.3157C31.0717 23.6336 30.8809 23.9221 30.6381 24.1634C30.3954 24.4047 30.1057 24.5937 29.7871 24.7188C29.4685 24.8439 29.1277 24.9025 28.7856 24.8908H27.9889V23.2241H28.4689C28.4689 23.2241 29.5689 23.3252 29.5556 21.6319C29.5556 21.6319 29.3411 22.3175 27.7989 22.3175C27.2117 22.2845 26.659 22.0294 26.2529 21.6039C25.8468 21.1784 25.6178 20.6145 25.6122 20.0263V19.2175C25.6401 18.5819 25.9093 17.981 26.365 17.5371C26.8206 17.0932 27.4284 16.8398 28.0644 16.8286C28.3558 16.8088 28.6475 16.8606 28.9142 16.9795C29.1809 17.0984 29.4145 17.2808 29.5944 17.5108V16.9675H31.3722L31.3767 22.3152ZM22.8622 19.6053C22.8622 20.2195 22.3643 20.7175 21.75 20.7175C21.1357 20.7175 20.6378 20.2195 20.6378 19.6053C20.6378 18.991 21.1357 18.4931 21.75 18.4931C22.3643 18.4931 22.8622 18.991 22.8622 19.6053ZM10.9726 18.7716C11.1425 18.6581 11.3423 18.5975 11.5466 18.5975C11.8207 18.5975 12.0835 18.7064 12.2773 18.9001C12.4711 19.0939 12.58 19.3568 12.58 19.6308C12.58 19.8352 12.5194 20.035 12.4058 20.2049C12.2923 20.3748 12.1309 20.5073 11.9421 20.5855C11.7533 20.6637 11.5455 20.6842 11.345 20.6443C11.1446 20.6044 10.9605 20.506 10.816 20.3615C10.6715 20.217 10.5731 20.0329 10.5332 19.8324C10.4933 19.632 10.5138 19.4242 10.592 19.2354C10.6702 19.0466 10.8026 18.8852 10.9726 18.7716ZM29.6689 19.6041C29.6689 20.2043 29.1824 20.6908 28.5822 20.6908C27.9821 20.6908 27.4956 20.2043 27.4956 19.6041C27.4956 19.004 27.9821 18.5175 28.5822 18.5175C29.1824 18.5175 29.6689 19.004 29.6689 19.6041Z" fill="#8E9DAA"/>
</svg>
