<svg width="56" height="57" viewBox="0 0 56 57" fill="none" xmlns="http://www.w3.org/2000/svg">
<path d="M41.9691 10.0962C46.9373 13.3096 50.5382 18.1288 52.1166 23.6766C53.695 29.2243 53.1458 35.1318 50.569 40.3235C47.9922 45.5152 43.559 49.6461 38.0766 51.9641C32.5942 54.2821 26.427 54.6332 20.6977 52.9533C14.9684 51.2735 10.0579 47.6745 6.86002 42.8115C3.66217 37.9484 2.38959 32.1447 3.274 26.4568C4.15842 20.7688 7.141 15.5749 11.6788 11.8203C16.2166 8.06581 22.0078 6.00037 27.9984 6" stroke="#FF8A8A" stroke-width="6" stroke-miterlimit="10"/>
<path d="M27.3169 0L34.1462 6.10714L27.3169 12.2143" fill="#FF8A8A"/>
<path d="M28 19V30.5096L35.1373 37.0865" stroke="#E44949" stroke-width="4"/>
</svg>
