<svg width="56" height="47" viewBox="0 0 56 47" fill="none" xmlns="http://www.w3.org/2000/svg">
<path d="M43.2827 1.14502H1.04736V37.1949H43.2827V1.14502Z" fill="#F0C1FF"/>
<path d="M45.0394 0H0V9.00788H45.0394V0Z" fill="#ECB0FF"/>
<path d="M17.73 0.00110245L17.73 37.3276L27.0616 37.3276L27.0616 0.00110204L17.73 0.00110245Z" fill="#D68DF0"/>
<circle cx="43.431" cy="34.1722" r="12.5691" fill="#FFC354"/>
<path d="M49.5066 33.0955C49.4666 32.9977 49.3994 32.9113 49.3116 32.8452C49.2239 32.779 49.1188 32.7355 49.007 32.7189L46.5541 32.1439C46.0887 32.0104 45.6786 31.7485 45.3791 31.3934L43.8834 29.3808C43.8251 29.2871 43.7414 29.209 43.6405 29.1542C43.5396 29.0994 43.425 29.0699 43.308 29.0684C43.191 29.067 43.0756 29.0937 42.9732 29.1459C42.8708 29.1982 42.7848 29.2742 42.7238 29.3664L41.1254 31.402C40.8138 31.7532 40.3986 32.0134 39.9301 32.151L37.6127 32.7131C37.4999 32.7324 37.3942 32.7779 37.3057 32.8453C37.2172 32.9127 37.1488 32.9998 37.1068 33.0984C37.0764 33.1985 37.0748 33.3042 37.1021 33.405C37.1294 33.5058 37.1847 33.5984 37.2625 33.6735L38.7675 35.3382C39.0531 35.6964 39.2158 36.1256 39.2344 36.5702L39.1862 39.0659C39.1731 39.1746 39.1924 39.2846 39.242 39.3839C39.2916 39.4832 39.3696 39.5681 39.4677 39.6295C39.5657 39.6909 39.6799 39.7264 39.7982 39.7322C39.9164 39.738 40.0342 39.7139 40.1387 39.6625L42.5916 38.8129C43.0612 38.6835 43.5616 38.6835 44.0312 38.8129L46.4841 39.6625C46.5835 39.6978 46.6889 39.7163 46.7954 39.7171C46.8739 39.719 46.952 39.7059 47.0248 39.6787C47.0977 39.6515 47.1637 39.6108 47.2187 39.559C47.2812 39.4924 47.3275 39.4141 47.3544 39.3296C47.3812 39.245 47.388 39.156 47.3744 39.0688L47.1549 36.5688C47.1467 36.1341 47.3068 35.711 47.6063 35.3756L49.3183 33.662C49.4024 33.5922 49.4643 33.5027 49.4975 33.4029C49.5307 33.3031 49.5338 33.1969 49.5066 33.0955Z" fill="white"/>
</svg>
