<svg width="56" height="56" viewBox="0 0 56 56" fill="none" xmlns="http://www.w3.org/2000/svg">
<g clip-path="url(#clip0)">
<path d="M44 11.3232H11V44.3232H44V11.3232Z" stroke="#FFA329" stroke-width="4" stroke-miterlimit="10"/>
<path d="M9.68224 19.7174C15.0296 19.7174 19.3645 15.3758 19.3645 10.0201C19.3645 4.6644 15.0296 0.322754 9.68224 0.322754C4.33489 0.322754 0 4.6644 0 10.0201C0 15.3758 4.33489 19.7174 9.68224 19.7174Z" fill="#FFC354"/>
<path d="M45.6822 55.717C51.0296 55.717 55.3645 51.3753 55.3645 46.0196C55.3645 40.6639 51.0296 36.3223 45.6822 36.3223C40.3349 36.3223 36 40.6639 36 46.0196C36 51.3753 40.3349 55.717 45.6822 55.717Z" fill="#FFC354"/>
<path d="M44.3049 0.000230789L33 11.3228L44.3049 22.6453L55.6098 11.3228L44.3049 0.000230789Z" fill="#83EDC5"/>
<path d="M0 37.3223L0 55.3223H18V37.3223H0Z" fill="#83EDC5"/>
</g>
<defs>
<clipPath id="clip0">
<rect width="56" height="56" fill="white"/>
</clipPath>
</defs>
</svg>
