<svg width="49" height="28" viewBox="0 0 49 28" fill="none" xmlns="http://www.w3.org/2000/svg">
<g clip-path="url(#clip0)">
<path d="M49.0001 3.06787L32.7791 7.9505V19.0996L49.0001 24.8113V3.06787Z" fill="#7886FF"/>
<path d="M38.0979 27.8793H0V0H38.0979V9.75874V27.8793Z" fill="#A4ADFF"/>
<g clip-path="url(#clip1)">
<path d="M16.0999 20.1555C15.6009 20.4365 15.2068 20.2057 15.2068 19.6537V9.11576C15.2068 8.5437 15.6059 8.31287 16.0949 8.61395L22.436 13.893C22.5447 13.929 22.6392 13.9987 22.7062 14.0919C22.7732 14.1851 22.8093 14.2973 22.8093 14.4123C22.8093 14.5274 22.7732 14.6395 22.7062 14.7328C22.6392 14.826 22.5447 14.8956 22.436 14.9317L16.0999 20.1555Z" fill="white"/>
</g>
</g>
<defs>
<clipPath id="clip0">
<rect width="49" height="27.8793" fill="white"/>
</clipPath>
<clipPath id="clip1">
<rect width="7.60345" height="11.8276" fill="white" transform="translate(15.2068 8.44824)"/>
</clipPath>
</defs>
</svg>
