<svg width="52" height="52" viewBox="0 0 52 52" fill="none" xmlns="http://www.w3.org/2000/svg">
<path d="M44.2906 30.2193L51.4682 31.234C52.1737 27.8049 52.1737 24.2681 51.4682 20.839L44.2782 21.829L43.0407 18.9456L41.8032 16.0498L47.5946 11.6938C45.6792 8.74529 43.1822 6.21872 40.2563 4.26878L35.8755 10.0479L32.992 8.81042L30.1088 7.57292L31.1234 0.395383C27.6943 -0.31018 24.1575 -0.31018 20.7284 0.395383L21.7185 7.57292L18.8226 8.81042L15.9391 10.0479L11.7441 4.29353C8.79273 6.20544 6.2655 8.70319 4.31908 11.6319L10.0981 16.0127L8.86063 18.8961L7.62313 21.7795L0.606565 20.7895C-0.0989981 24.2186 -0.0989981 27.7554 0.606565 31.1845L7.79655 30.1945L9.03405 33.0779L10.2716 35.9737L4.31908 40.305C6.23762 43.234 8.73484 45.7397 11.6574 47.6681L16.0382 41.889L18.9217 43.1265L21.8049 44.364L20.7904 51.5415C24.2195 52.2471 27.7562 52.2471 31.1853 51.5415L30.1952 44.364L33.0911 43.1265L35.9746 41.889L40.3306 47.6929C43.2797 45.773 45.8062 43.2717 47.7557 40.3421L41.9763 35.9737L43.2138 33.0903L44.2906 30.2193ZM26.0002 36.5429C23.9128 36.5527 21.8694 35.9427 20.129 34.7901C18.3886 33.6376 17.0296 31.9943 16.224 30.0686C15.4184 28.1429 15.2026 26.0214 15.6038 23.9729C16.005 21.9244 17.0053 20.0411 18.4779 18.5616C19.9504 17.0821 21.8288 16.073 23.8754 15.6622C25.922 15.2513 28.0446 15.4572 29.9741 16.2538C31.9035 17.0503 33.5531 18.4017 34.7138 20.1366C35.8746 21.8715 36.4942 23.912 36.4942 25.9994C36.4975 28.7881 35.3947 31.4644 33.4274 33.4409C31.4601 35.4175 28.789 36.5331 26.0002 36.5429Z" fill="#FFC354"/>
</svg>
