<svg width="40" height="40" viewBox="0 0 40 40" fill="none" xmlns="http://www.w3.org/2000/svg">
<path fill-rule="evenodd" clip-rule="evenodd" d="M10.6667 6.66699C8.45753 6.66699 6.66666 8.45785 6.66666 10.667V29.3337C6.66666 31.5428 8.45752 33.3337 10.6667 33.3337L19.9509 33.3337V23.705H16.6667V19.9512H19.9509V17.1832C19.9509 13.9721 21.9389 12.2227 24.8435 12.2227C25.8236 12.2197 26.8031 12.2688 27.7778 12.3698V15.7279H25.7648C24.1843 15.7279 23.8796 16.4688 23.8796 17.555V19.9512H27.6463L27.1546 23.705H23.8796V33.3337L29.3333 33.3337C31.5425 33.3337 33.3333 31.5428 33.3333 29.3337V10.667C33.3333 8.45785 31.5425 6.66699 29.3333 6.66699H10.6667Z" fill="#8E9DAA"/>
</svg>
