<svg width="40" height="40" viewBox="0 0 40 40" fill="none" xmlns="http://www.w3.org/2000/svg">
<path fill-rule="evenodd" clip-rule="evenodd" d="M26.285 5H13.715C11.4045 5.00265 9.18929 5.92168 7.55549 7.55549C5.92168 9.18929 5.00265 11.4045 5 13.715V26.285C5.00265 28.5955 5.92168 30.8107 7.55549 32.4445C9.18929 34.0783 11.4045 34.9974 13.715 35H26.285C28.5955 34.9974 30.8107 34.0783 32.4445 32.4445C34.0783 30.8107 34.9974 28.5955 35 26.285V13.715C34.9974 11.4045 34.0783 9.18929 32.4445 7.55549C30.8107 5.92168 28.5955 5.00265 26.285 5ZM32.66 26.285C32.66 27.1222 32.4951 27.9512 32.1747 28.7246C31.8544 29.4981 31.3848 30.2008 30.7928 30.7928C30.2008 31.3848 29.4981 31.8544 28.7246 32.1747C27.9512 32.4951 27.1222 32.66 26.285 32.66H13.715C12.8778 32.66 12.0488 32.4951 11.2754 32.1747C10.5019 31.8544 9.79917 31.3848 9.20719 30.7928C8.61522 30.2008 8.14564 29.4981 7.82527 28.7246C7.50489 27.9512 7.34 27.1222 7.34 26.285V13.715C7.34 12.0242 8.01165 10.4027 9.20719 9.20719C10.4027 8.01165 12.0242 7.34 13.715 7.34H26.285C27.1222 7.34 27.9512 7.50489 28.7246 7.82527C29.4981 8.14564 30.2008 8.61522 30.7928 9.20719C31.3848 9.79917 31.8544 10.5019 32.1747 11.2754C32.4951 12.0488 32.66 12.8778 32.66 13.715V26.285ZM20 11.9138C18.4007 11.9138 16.8373 12.388 15.5075 13.2765C14.1778 14.1651 13.1413 15.428 12.5293 16.9055C11.9173 18.3831 11.7571 20.009 12.0691 21.5776C12.3811 23.1461 13.1513 24.587 14.2822 25.7178C15.4131 26.8487 16.8539 27.6189 18.4225 27.9309C19.991 28.2429 21.6169 28.0828 23.0945 27.4707C24.5721 26.8587 25.835 25.8223 26.7235 24.4925C27.612 23.1627 28.0863 21.5993 28.0863 20C28.0839 17.8561 27.2313 15.8007 25.7153 14.2847C24.1993 12.7688 22.1439 11.9161 20 11.9138ZM20 25.7425C18.8643 25.7425 17.754 25.4057 16.8096 24.7747C15.8653 24.1437 15.1293 23.2469 14.6946 22.1976C14.26 21.1483 14.1463 19.9936 14.3679 18.8797C14.5894 17.7658 15.1363 16.7425 15.9395 15.9394C16.7426 15.1363 17.7658 14.5894 18.8797 14.3678C19.9936 14.1463 21.1483 14.26 22.1976 14.6946C23.2469 15.1293 24.1437 15.8653 24.7747 16.8096C25.4057 17.754 25.7425 18.8643 25.7425 20C25.7405 21.5224 25.1349 22.9819 24.0584 24.0584C22.9819 25.1349 21.5224 25.7405 20 25.7425ZM29.3762 11.7975C29.3762 12.4451 28.8513 12.97 28.2038 12.97C27.5562 12.97 27.0312 12.4451 27.0312 11.7975C27.0312 11.1499 27.5562 10.625 28.2038 10.625C28.8513 10.625 29.3762 11.1499 29.3762 11.7975Z" fill="#8E9DAA"/>
</svg>
