<svg width="160" height="32" viewBox="0 0 160 32" fill="none" xmlns="http://www.w3.org/2000/svg">
<g clip-path="url(#clip0)">
<path fill-rule="evenodd" clip-rule="evenodd" d="M43.2417 24.0614V30.7425L38.3979 30.7333V7.70189H50.6559C51.2297 7.66342 51.805 7.74826 52.3432 7.9507C52.8814 8.15313 53.37 8.46847 53.7762 8.87551C54.1823 9.28254 54.4966 9.77183 54.6979 10.3105C54.8991 10.8491 54.9827 11.4246 54.943 11.9982V19.4217C54.9887 20.0427 54.9 20.6663 54.683 21.2499C54.466 21.8335 54.1257 22.3635 53.6854 22.8038C53.2451 23.2441 52.7151 23.5844 52.1315 23.8014C51.5479 24.0184 50.9243 24.1071 50.3033 24.0614H43.2417ZM49.9959 19.2961C50.0573 19.1158 50.0767 18.9239 50.0528 18.7351L50.0899 12.9447C50.1015 12.7738 50.0761 12.6023 50.0152 12.4422C49.9543 12.282 49.8595 12.1369 49.7373 12.0168C49.6173 11.8939 49.4724 11.798 49.3124 11.7356C49.1524 11.6732 48.9809 11.6457 48.8094 11.6549H43.2417V20.1362H48.6609C48.8499 20.1589 49.0417 20.1382 49.2215 20.0756C49.4013 20.0131 49.5646 19.9104 49.6987 19.7753C49.8329 19.6402 49.9346 19.4763 49.9959 19.2961ZM159.698 8.02671C159.574 7.91259 159.427 7.82561 159.267 7.77129C159.108 7.71697 158.938 7.69651 158.77 7.7112H145.092C144.918 7.6972 144.743 7.7212 144.579 7.78153C144.415 7.84187 144.266 7.9371 144.143 8.06065C144.019 8.18419 143.924 8.3331 143.864 8.49707C143.803 8.66104 143.779 8.83616 143.793 9.01032V22.7809C143.788 22.9512 143.816 23.1209 143.877 23.2801C143.937 23.4394 144.029 23.5851 144.146 23.7088C144.398 23.9403 144.732 24.0636 145.074 24.0522H158.789C158.951 24.0663 159.114 24.0448 159.267 23.9892C159.419 23.9336 159.558 23.8452 159.673 23.7302C159.788 23.6153 159.877 23.4765 159.932 23.3237C159.988 23.1709 160.009 23.0078 159.995 22.8458V8.9268C160.01 8.75866 159.99 8.58919 159.936 8.42935C159.881 8.26951 159.794 8.12284 159.68 7.99886L159.698 8.02671ZM155.161 20.062H148.665V11.6549H155.207L155.161 20.062ZM73.4938 7.78398C73.6453 7.83979 73.784 7.92567 73.9014 8.03646V7.95295C74.018 8.07558 74.1066 8.22205 74.1611 8.38226C74.2156 8.54247 74.2346 8.7126 74.2169 8.88088V22.7999C74.2346 22.9682 74.2156 23.1383 74.1611 23.2985C74.1066 23.4588 74.018 23.6052 73.9014 23.7279C73.784 23.8386 73.6453 23.9245 73.4938 23.9803C73.3423 24.0362 73.1811 24.0608 73.0199 24.0526H59.2957C58.9534 24.0641 58.6202 23.9408 58.3678 23.7093C58.2519 23.5851 58.1618 23.4391 58.1029 23.2798C58.0439 23.1205 58.0173 22.9511 58.0244 22.7814V8.98296C58.0173 8.81325 58.0439 8.6438 58.1029 8.48449C58.1618 8.32518 58.2519 8.17919 58.3678 8.05502C58.6202 7.82353 58.9534 7.70026 59.2957 7.71168H73.0199C73.1811 7.70357 73.3423 7.72817 73.4938 7.78398ZM62.8404 20.0161H69.3824V11.6554H62.8404V20.0161ZM92.8129 7.78398C92.9643 7.83979 93.103 7.92567 93.2204 8.03646V7.95295C93.337 8.07558 93.4256 8.22205 93.4801 8.38226C93.5346 8.54247 93.5536 8.7126 93.5359 8.88088V22.7999C93.5536 22.9682 93.5346 23.1383 93.4801 23.2985C93.4256 23.4588 93.337 23.6052 93.2204 23.7279C93.103 23.8386 92.9643 23.9245 92.8129 23.9803C92.6614 24.0362 92.5001 24.0608 92.3389 24.0526H78.6147C78.2726 24.0631 77.9398 23.9399 77.6868 23.7093C77.5709 23.5851 77.4808 23.4391 77.4219 23.2798C77.3629 23.1205 77.3363 22.9511 77.3435 22.7814V8.98296C77.3363 8.81325 77.3629 8.6438 77.4219 8.48449C77.4808 8.32518 77.5709 8.17919 77.6868 8.05502C77.9408 7.82606 78.2729 7.70318 78.6147 7.71168H92.3389C92.5001 7.70357 92.6614 7.72817 92.8129 7.78398ZM82.2058 20.0161H88.7014V11.6554H82.2058V20.0161ZM119.333 8.90835C118.91 8.50452 118.41 8.19031 117.864 7.9846C117.317 7.77888 116.734 7.68592 116.15 7.71131H96.6631V23.8203H101.6V11.655H104.866C105.034 11.655 105.2 11.6882 105.355 11.7527C105.51 11.8172 105.65 11.9116 105.768 12.0307C105.886 12.1497 105.98 12.2909 106.043 12.4462C106.107 12.6016 106.139 12.7679 106.137 12.9356V23.8203H111.074V11.655H114.34C114.513 11.647 114.684 11.676 114.845 11.74C115.005 11.804 115.149 11.9016 115.268 12.0262C115.39 12.1473 115.485 12.2923 115.547 12.4521C115.609 12.6118 115.638 12.7828 115.63 12.9541V23.8203H120.576V12.1005C120.601 11.5153 120.507 10.9312 120.302 10.3829C120.096 9.83452 119.782 9.33308 119.379 8.90835H119.333ZM135.859 25.3513V23.8202L128.835 23.8387C128.212 23.8576 127.592 23.7525 127.011 23.5295C126.429 23.3064 125.898 22.97 125.448 22.5396C125.033 22.0848 124.712 21.5519 124.505 20.972C124.298 20.3921 124.209 19.7768 124.242 19.1619V12.0261C124.202 11.4525 124.286 10.877 124.487 10.3383C124.688 9.79968 125.002 9.31039 125.409 8.90336C125.815 8.49632 126.303 8.18098 126.842 7.97855C127.38 7.77612 127.955 7.69128 128.529 7.72975H140.703V26.2885C140.742 26.7909 140.647 27.2947 140.426 27.7481C140.206 28.2014 139.869 28.588 139.451 28.8681C138.568 29.5636 137.506 29.9947 136.388 30.1116L126.933 30.8725L125.327 31.0117V27.3463L130.579 26.9566L134.607 26.604C134.772 26.6065 134.936 26.5758 135.089 26.5137C135.242 26.4516 135.381 26.3595 135.498 26.2426C135.615 26.1258 135.707 25.9867 135.769 25.8336C135.831 25.6805 135.862 25.5165 135.859 25.3513ZM130.477 19.9878H135.859L135.934 11.6178H130.366C130.195 11.6086 130.023 11.6361 129.863 11.6985C129.703 11.7609 129.558 11.8568 129.438 11.9797C129.316 12.0998 129.221 12.2449 129.16 12.4051C129.099 12.5652 129.074 12.7367 129.086 12.9076V18.5866C129.062 18.7755 129.081 18.9674 129.142 19.1476C129.204 19.3279 129.305 19.4918 129.44 19.6268C129.574 19.7619 129.737 19.8646 129.917 19.9272C130.097 19.9897 130.288 20.0105 130.477 19.9878Z" fill="white"/>
<path d="M31.5869 24.0799V7.71115L15.7935 0L0 7.71115V24.0799H5.7996V11.3394L15.7935 6.46772L25.7781 11.3394V24.0799H31.5869Z" fill="white"/>
<path d="M15.7932 16.211V24.0799H5.80865V11.3394L15.7932 16.211Z" fill="url(#paint0_linear)"/>
<path d="M15.7939 16.211V24.0799H25.7785V11.3394L15.7939 16.211Z" fill="url(#paint1_linear)"/>
<path d="M5.80865 11.3394L15.7932 16.2111L25.7778 11.3394L15.7932 6.46777L5.80865 11.3394Z" fill="#0040D1"/>
</g>
<defs>
<linearGradient id="paint0_linear" x1="11.4475" y1="21.2568" x2="11.4475" y2="34.0014" gradientUnits="userSpaceOnUse">
<stop stop-color="#6A8DD7"/>
<stop offset="1" stop-color="#B2C4EB"/>
</linearGradient>
<linearGradient id="paint1_linear" x1="25.0547" y1="10.996" x2="18.3921" y2="25.2862" gradientUnits="userSpaceOnUse">
<stop stop-color="#B3C4EB"/>
<stop offset="0.4" stop-color="#D2DCF3"/>
<stop offset="1" stop-color="#FCFDFF"/>
</linearGradient>
<clipPath id="clip0">
<rect width="160" height="31.3043" fill="white"/>
</clipPath>
</defs>
</svg>
