<svg width="40" height="40" viewBox="0 0 40 40" fill="none" xmlns="http://www.w3.org/2000/svg">
<path d="M35.977 11.9845C35.7863 11.2811 35.4148 10.6399 34.8994 10.1245C34.384 9.60923 33.7427 9.23778 33.0393 9.04711C30.4312 8.33301 19.9979 8.33301 19.9979 8.33301C19.9979 8.33301 9.56569 8.33301 6.95764 9.01974C6.25493 9.22056 5.61571 9.59875 5.10143 10.118C4.58715 10.6372 4.2151 11.2799 4.02107 11.9845C3.5478 14.6294 3.3179 17.3122 3.33424 19.9991C3.31692 22.6864 3.54683 25.3697 4.02107 28.0149C4.21176 28.7183 4.58327 29.3595 5.09866 29.8748C5.61404 30.3901 6.25536 30.7616 6.95883 30.9522C9.59425 31.6663 19.999 31.6663 19.999 31.6663C19.999 31.6663 30.4312 31.6663 33.0393 30.9796C33.7427 30.7889 34.384 30.4175 34.8994 29.9022C35.4148 29.3869 35.7863 28.7456 35.977 28.0423C36.4503 25.3969 36.6802 22.7138 36.6638 20.0265C36.6952 17.3299 36.4651 14.6367 35.977 11.9845ZM16.6768 24.9954V14.998L25.3556 19.9991L16.6768 24.9954Z" fill="#8E9DAA"/>
</svg>
