<?xml version="1.0" encoding="UTF-8" standalone="no"?>
<!DOCTYPE svg PUBLIC "-//W3C//DTD SVG 1.1//EN"
"http://www.w3.org/Graphics/SVG/1.1/DTD/svg11.dtd">
<svg width="300" height="101.6" xmlns="http://www.w3.org/2000/svg" xmlns:xlink="http://www.w3.org/1999/xlink" version="1.1">
 <desc>Logo of FILA</desc>
 <g>
   <path fill="#cc393c" fill-rule="nonzero" id="path2205" d="m75.011,2.83671c7.43302,0 13.45966,6.02434 13.45966,13.45814c0,7.43524 -6.02663,13.45967 -13.45966,13.45967l-61.55133,0c-7.43375,0 -13.45967,-6.02443 -13.45967,-13.45967c0,-7.4338 6.02592,-13.45814 13.45967,-13.45814l61.55133,0z"/>
   <path fill="#3d3d6a" fill-rule="nonzero" id="path2207" d="m68.82455,38.10375c7.43375,0 13.45962,6.02514 13.45962,13.45964c0,7.43303 -6.02587,13.45819 -13.45962,13.45819l-35.03336,0c-2.98761,0.0109 -5.43377,2.37428 -5.54811,5.33212l0,17.54212c0,7.43301 -6.02589,13.45819 -13.45739,13.45819c-7.43381,0 -13.45967,-6.02518 -13.45967,-13.45819l0,-29.85249c0,-11.01143 8.92685,-19.93958 19.93866,-19.93958l47.55987,0z"/>
   <path fill="#3d3d6a" fill-rule="nonzero" id="path2209" d="m94.58233,13.45908c0,-7.43299 6.02587,-13.45908 13.45891,-13.45908c7.43449,0 13.45963,6.02609 13.45963,13.45908l0,74.53158c0,7.43382 -6.02514,13.45966 -13.45963,13.45966c-7.43304,0 -13.45891,-6.02584 -13.45891,-13.45966l0,-74.53158z"/>
   <path fill="#3d3d6a" fill-rule="nonzero" id="path2211" d="m260.23447,74.75478l5.40924,-0.0139c1.10519,0 2.00214,-0.89766 2.00214,-2.00215c0.00467,-0.28099 -0.04166,-0.53107 -0.14188,-0.76727l-20.11169,-33.79583l-31.41949,54.40308c-2.42653,4.20654 -6.78465,6.60625 -11.3076,6.72668c-0.13287,0.01852 -0.26697,0.02851 -0.40758,0.02851l-51.13193,0c-11.01294,0 -19.93961,-8.92725 -19.93961,-19.93868l0,-65.93614c0,-7.43299 6.02603,-13.45908 13.45984,-13.45908c7.43227,0 13.45891,6.02609 13.45891,13.45908l0,53.40733c0.00928,2.98936 2.37187,5.43629 5.33195,5.54815l28.60281,0c0.73634,-0.22617 2.98561,-0.99107 3.67104,-2.05625l35.92711,-62.19265c2.72607,-4.68061 7.79721,-7.83223 13.60173,-7.83223c5.80765,0 10.88011,3.15626 13.59395,7.84687l35.00851,58.7771c2.60599,3.39391 4.15582,7.63992 4.15582,12.2487c0,11.11647 -9.01205,20.1278 -20.12711,20.1278l-40.80815,0c-6.78944,0 -12.28964,-5.50335 -12.28964,-12.29113c0,-6.78616 5.5002,-12.28799 12.28964,-12.28799l21.17198,0z"/>
 </g>
</svg>