<svg xmlns="http://www.w3.org/2000/svg" viewBox="0 0 110 22" enable-background="new 0 0 110 22"><path d="M22.5 21.8V3.2c0-.6.2-1.1.6-1.5.4-.5.9-.7 1.5-.7h2.1v17h10.2v3.9H22.5v-.1zM39.4 21.8V4.7h-6.2V3.2c0-.6.2-1.1.6-1.5.5-.5 1-.7 1.6-.7h14.4v3.7h-6.1v17.1h-4.3z"/><defs><filter id="a" filterUnits="userSpaceOnUse" x="53.2" y="18.1" width="13.4" height="3.7"><feColorMatrix values="1 0 0 0 0 0 1 0 0 0 0 0 1 0 0 0 0 0 1 0"/></filter></defs><mask maskUnits="userSpaceOnUse" x="53.2" y="18.1" width="13.4" height="3.7" id="b"><g filter="url(#a)"><path fill="#FFF" d="M0 21.8h109.6V.8H0z"/></g></mask><path mask="url(#b)" d="M53.2 21.8h13.4v-3.7H53.2z"/><defs><filter id="c" filterUnits="userSpaceOnUse" x="53.2" y="9.4" width="13.4" height="3.8"><feColorMatrix values="1 0 0 0 0 0 1 0 0 0 0 0 1 0 0 0 0 0 1 0"/></filter></defs><mask maskUnits="userSpaceOnUse" x="53.2" y="9.4" width="13.4" height="3.8" id="d"><g filter="url(#c)"><path fill="#FFF" d="M0 21.8h109.6V.8H0z"/></g></mask><path mask="url(#d)" d="M53.2 13.2h13.4V9.4H53.2z"/><defs><filter id="e" filterUnits="userSpaceOnUse" x="53.2" y=".8" width="13.4" height="3.7"><feColorMatrix values="1 0 0 0 0 0 1 0 0 0 0 0 1 0 0 0 0 0 1 0"/></filter></defs><mask maskUnits="userSpaceOnUse" x="53.2" y=".8" width="13.4" height="3.7" id="f"><g filter="url(#e)"><path fill="#FFF" d="M0 21.8h109.6V.8H0z"/></g></mask><path mask="url(#f)" d="M53.2 4.5h13.4V.8H53.2z"/><path d="M12.4 1H9c-1 0-1.7.5-2.1 1.4L0 21.8h4.5l1.3-4.3H14l1.4 4.3h4.5L12.4 1zM7 14l2.9-8.8 2.9 8.8H7zM86.9 20.5c0-.2-.1-.5-.1-.8v-.8l-.1-2.5c-.1-1.5-.3-2.5-.7-3.1-.4-.6-1-1.1-1.9-1.5 1-.4 1.8-.9 2.3-1.8.6-.8.8-1.9.8-3.2 0-1.9-.6-3.4-1.7-4.4S82.7.9 80.5.9h-7.9c-.6.1-1.2.3-1.6.8-.4.4-.6.9-.6 1.5v18.6h4.3v-8.1h4.5c1.1 0 1.9.2 2.4.7.4.5.6 1.4.7 2.6l.1 2.2c0 .2 0 .7.1 1.3 0 .4.2.9.4 1.3h4.7c-.4-.2-.6-.6-.7-1.3zM82.1 9.4c-.5.4-1.3.7-2.4.7h-5V4.6H80c1 0 1.7.2 2.2.7.5.4.8 1.1.8 2.1-.1.9-.3 1.6-.9 2zM102 1h-3.4c-1 0-1.7.5-2.1 1.4l-6.9 19.4h4.5l1.3-4.3h8.1l1.4 4.3h4.5L102 1zm-5.3 13l2.9-8.8 2.9 8.8h-5.8z"/></svg>